# xmcd
#
# Track frame offsets: 
#        150
#        43166
#        74447
#        104884
#        124657
#        166846
#        202570
#        249570
#        273444
#        300825
#        323862
#
# Disc length: 4761 seconds
#
# Revision: 1
# Processed by: cddbd v1.5.2PL0 Copyright (c) Steve Scherf et al.
# Submitted via: ExactAudioCopy v1.0b3
#
DISCID=9512970b
DTITLE=Various Artist - This is Jazz the Best and the Greatest [Disc 1]
DYEAR=2010
DGENRE=Jazz
TTITLE0=MOANIN' - Art Blakey and The Jazz Messengers
TTITLE1=WALTZ FOR DEBBY - Bill Evans
TTITLE2=ST. THOMAS - Sonny Rollins
TTITLE3=CLEOPATRA'S DREAM - Bud Powell
TTITLE4=COOL STRUTTIN' - Sonny Clark
TTITLE5=MAIDEN VOYAGE - Herbie Hancock
TTITLE6=THE SIDEWINDER - Lee Morgan
TTITLE7=FIVE SPOT AFTER DARK - Curtis Fuller
TTITLE8=LEFT ALONE - Mal Waldron
TTITLE9=MERCY, MERCY, MERCY - Cannonball Adderley
TTITLE10=SING, SING, SING - Benny Goodman
EXTD=YEAR: 2010
EXTT0=
EXTT1=
EXTT2=
EXTT3=
EXTT4=
EXTT5=
EXTT6=
EXTT7=
EXTT8=
EXTT9=
EXTT10=
PLAYORDER=
